<mxfile host="app.diagrams.net" modified="2023-06-15T08:45:41.479Z" agent="Mozilla/5.0 (Windows NT 10.0; Win64; x64) AppleWebKit/537.36 (KHTML, like Gecko) Chrome/114.0.0.0 Safari/537.36" version="21.3.8" etag="yC_5nwb2hGbZC10e0Vbf" type="github">
  <diagram name="第 1 页" id="ks-9cWMgujeYPZ_YFPuQ">
    <mxGraphModel>
      <root>
        <mxCell id="0" />
        <mxCell id="1" parent="0" />
      </root>
    </mxGraphModel>
  </diagram>
</mxfile>
